<svg width="80" height="80" viewBox="0 0 80 80" fill="none" xmlns="http://www.w3.org/2000/svg">
<path d="M34.0359 56.0969L27.5026 48.2302L18.3359 59.9969H55.0026L43.2026 44.2969L34.0359 56.0969Z" fill="#ADC235"/>
<path opacity="0.3" d="M55.0026 60H18.3359L27.5026 48.2333L34.0359 56.1L43.2026 44.3L55.0026 60ZM56.6693 23.3333H46.6693V20H13.3359V66.6667H60.0026V33.3333H56.6693V23.3333Z" fill="#ADC235"/>
<path d="M65 15V5H58.3333V15H48.3333V21.6667H58.3333V31.6333H65V21.6667H75V15H65ZM58.3333 68.3333H11.6667V21.6667H45V15H11.6667C8 15 5 18 5 21.6667V68.3333C5 72 8 75 11.6667 75H58.3333C62 75 65 72 65 68.3333V35H58.3333V68.3333Z" fill="#ADC235"/>
</svg>
