<svg width="20" height="20" viewBox="0 0 20 20" fill="none" xmlns="http://www.w3.org/2000/svg">
<path d="M13.4318 5.97125H15.9202C16.0707 5.9714 16.2157 6.0274 16.3273 6.12842C16.4389 6.22943 16.509 6.36826 16.524 6.518L16.8946 10.2237H15.6723L15.3686 7.18625H13.4318V9.00875C13.4318 9.16987 13.3678 9.32439 13.2539 9.43832C13.14 9.55225 12.9855 9.61625 12.8243 9.61625C12.6632 9.61625 12.5087 9.55225 12.3948 9.43832C12.2808 9.32439 12.2168 9.16987 12.2168 9.00875V7.18625H7.35684V9.00875C7.35684 9.16987 7.29284 9.32439 7.17891 9.43832C7.06498 9.55225 6.91046 9.61625 6.74934 9.61625C6.58823 9.61625 6.43371 9.55225 6.31978 9.43832C6.20585 9.32439 6.14185 9.16987 6.14185 9.00875V7.18625H4.20392L3.23192 16.9062H9.78684V18.1212H2.56003C2.47517 18.1212 2.39128 18.1033 2.31375 18.0688C2.23622 18.0343 2.16678 17.984 2.10989 17.921C2.053 17.8581 2.00993 17.7839 1.98346 17.7033C1.95698 17.6227 1.94769 17.5374 1.95617 17.453L3.04967 6.518C3.06472 6.36826 3.13482 6.22943 3.24638 6.12842C3.35794 6.0274 3.50303 5.9714 3.65353 5.97125H6.14185V5.54721C6.14185 3.4404 7.76508 1.71875 9.78684 1.71875C11.8086 1.71875 13.4318 3.4404 13.4318 5.54721V5.97246V5.97125ZM12.2168 5.97125V5.54721C12.2168 4.0965 11.1209 2.93375 9.78684 2.93375C8.45277 2.93375 7.35684 4.0965 7.35684 5.54721V5.97246H12.2168V5.97125ZM16.0404 15.0108C16.0959 14.9506 16.1629 14.9021 16.2375 14.8684C16.3122 14.8346 16.3928 14.8163 16.4747 14.8146C16.5566 14.8128 16.638 14.8276 16.714 14.8581C16.79 14.8886 16.859 14.9342 16.917 14.9921C16.9749 15.0499 17.0206 15.1189 17.0512 15.1949C17.0818 15.2708 17.0967 15.3522 17.0951 15.4341C17.0935 15.516 17.0753 15.5967 17.0417 15.6714C17.008 15.746 16.9597 15.8131 16.8995 15.8686L14.4695 18.2986C14.3555 18.4125 14.201 18.4765 14.04 18.4765C13.8789 18.4765 13.7244 18.4125 13.6104 18.2986L11.1805 15.8686C11.1224 15.8126 11.0761 15.7456 11.0443 15.6714C11.0125 15.5973 10.9957 15.5176 10.995 15.437C10.9943 15.3563 11.0097 15.2763 11.0402 15.2016C11.0708 15.127 11.1159 15.0591 11.1729 15.0021C11.23 14.9451 11.2978 14.9 11.3724 14.8694C11.4471 14.8389 11.5271 14.8235 11.6078 14.8242C11.6884 14.8249 11.7681 14.8417 11.8423 14.8735C11.9164 14.9053 11.9834 14.9516 12.0395 15.0096L13.4318 16.4032V12.0462C13.4318 11.8851 13.4958 11.7306 13.6098 11.6167C13.7237 11.5028 13.8782 11.4387 14.0393 11.4387C14.2005 11.4387 14.355 11.5028 14.4689 11.6167C14.5828 11.7306 14.6468 11.8851 14.6468 12.0462V16.4032L16.0404 15.0096V15.0108Z" fill="#DD9776"/>
</svg>
